<svg width="2815" height="2814" viewBox="0 0 2815 2814" fill="none" xmlns="http://www.w3.org/2000/svg">
<path d="M0.844238 50.1328C0.844238 22.5186 23.23 0.132812 50.8442 0.132812H2462.79C2657.04 0.132812 2814.5 157.597 2814.5 351.84H0.844238V50.1328Z" fill="#E22651"/>
<path d="M0.844238 351.84H2814.5V703.547H0.844238V351.84Z" fill="#F14333"/>
<path d="M0.844238 703.547H2814.5V1055.25H0.844238V703.547Z" fill="#F6632F"/>
<path d="M0.844238 1055.25H2814.5V1406.96H0.844238V1055.25Z" fill="#FC802A"/>
<path d="M0.844238 1406.96H2814.5V1758.66H0.844238V1406.96Z" fill="#FE9A26"/>
<path d="M0.844238 1758.67H2814.5V2110.37H0.844238V1758.67Z" fill="#FEB223"/>
<path d="M0.844238 2110.38H2814.5V2462.08H0.844238V2110.38Z" fill="#FEC427"/>
<path d="M0.844238 2462.08H2814.5V2763.79C2814.5 2791.4 2792.12 2813.79 2764.5 2813.79H352.551C158.309 2813.79 0.844238 2656.32 0.844238 2462.08Z" fill="#FFD125"/>
<path d="M1948.74 259.256C2093.56 326.838 2207 427.005 2289.06 559.756C2373.54 692.508 2415.78 839.741 2415.78 1001.46C2415.78 1189.72 2357.85 1358.68 2242 1508.33C2128.55 1655.56 1982.53 1753.31 1803.92 1801.58L2444.74 2695.85H2285.44L1666.34 1826.93L1550.48 1830.55H641.738V2461.88C507.78 2461.88 507.78 2461.88 507.78 1830.55L507.78 175.984H1467.21C1573.41 175.984 1663.92 183.225 1738.75 197.707C1815.98 209.776 1885.98 230.292 1948.74 259.256ZM1586.69 1696.59C1712.2 1696.59 1828.05 1665.21 1934.25 1602.46C2040.45 1539.7 2124.93 1455.22 2187.69 1349.02C2250.44 1242.82 2281.82 1126.97 2281.82 1001.46C2281.82 861.464 2244.41 734.747 2169.59 621.305C2097.18 507.863 1995.8 423.385 1865.46 367.871C1771.33 329.252 1638.58 309.943 1467.21 309.943H641.738V1696.59H1586.69Z" fill="#2C0D2E"/>
</svg>
